<svg width="83" height="80" viewBox="0 0 83 80" fill="none" xmlns="http://www.w3.org/2000/svg">
<g clip-path="url(#clip0_246101_1000)">
<path d="M0.478516 0.478217C0.478516 28.1287 22.8925 50.5415 50.5418 50.5415V0.478217H0.478516Z" stroke="#3E3E42" stroke-width="1.26582"/>
<path d="M50.5417 12.9941C50.5417 16.4515 53.3431 19.2524 56.8004 19.2524V12.9941H50.5417" fill="#00ADEF"/>
<path d="M50.5417 12.9941C50.5417 16.4515 53.3431 19.2524 56.8004 19.2524V12.9941H50.5417Z" fill="#01A6E6" stroke="#3E3E42" stroke-width="1.26582"/>
<path d="M63.0573 0.478196C56.1452 0.478196 50.5417 6.08279 50.5417 12.9941H63.0573V0.478196Z" stroke="#3E3E42" stroke-width="1.26582"/>
<path d="M63.0574 0.478199V19.2524H81.8316C81.8316 8.88346 73.4264 0.478199 63.0574 0.478199Z" stroke="#3E3E42" stroke-width="1.26582"/>
<path d="M81.8315 19.2525H50.5417V50.5415C67.8217 50.5415 81.8315 36.5328 81.8315 19.2525V19.2525Z" stroke="#3E3E42" stroke-width="1.26582"/>
<path d="M63.0574 12.9941H56.8005V19.2524C60.256 19.2524 63.0574 16.4515 63.0574 12.9941" fill="#80CC28"/>
<path d="M63.0574 12.9941H56.8005V19.2524C60.256 19.2524 63.0574 16.4515 63.0574 12.9941V12.9941Z" fill="#86C922" stroke="#3E3E42" stroke-width="1.26582"/>
<path d="M56.8005 19.2524H63.0574V12.9941H56.8005V19.2524Z" stroke="#4F4C4C" stroke-width="1.26582"/>
<path d="M56.8004 12.9941H63.0573V0.478196H50.5417V12.9941H56.8004Z" stroke="#3E3E42" stroke-width="1.26582"/>
<path d="M56.8004 19.2525H50.5417V50.5415H81.8315V19.2525H63.0573H56.8004Z" stroke="#3E3E42" stroke-width="1.26582"/>
<path d="M50.5418 12.9942V0.478217H0.478516V50.5415H50.5418V19.2525V12.9942Z" stroke="#3E3E42" stroke-width="1.26582"/>
<path d="M63.0574 0.478199V19.2524H81.8316V0.478199H63.0574Z" stroke="#3E3E42" stroke-width="1.26582"/>
<path d="M50.5417 12.9941V19.2524H56.8004V12.9941H50.5417Z" stroke="#3E3E42" stroke-width="1.26582"/>
<path d="M0.0800781 54.0111H6.19488C9.27359 54.0111 10.8688 55.761 10.8688 58.242C10.8688 59.5492 10.3814 60.8125 8.54288 61.6321V61.6758C10.2708 62.0746 11.1125 63.7148 11.1125 65.31C11.1125 68.0347 9.0968 69.7847 6.72601 69.7847H0.0800781V54.0111ZM2.47255 56.1377V60.6574H5.92838C7.65668 60.6574 8.47634 59.6388 8.47634 58.3979C8.47634 57.1795 7.65668 56.1377 5.92838 56.1377H2.47255ZM2.47255 62.784V67.5253H6.15003C7.92243 67.5253 8.72004 66.3957 8.72004 65.1549C8.72004 63.914 7.92243 62.784 6.15003 62.784H2.47255" fill="#01A6E6"/>
<path d="M13.4604 54.0111H15.7202V56.2712H13.4604V54.0111ZM13.4604 58.553H15.7202V69.7847H13.4604V58.553Z" fill="#01A6E6"/>
<path d="M19.3754 59.8606C19.9959 59.1725 21.0368 58.4197 22.7868 58.4197C24.5372 58.4197 25.5784 59.1725 26.1985 59.8606C27.0627 60.8126 27.417 61.7432 27.417 64.1578C27.417 66.5947 27.0627 67.5254 26.1985 68.4777C25.5784 69.1644 24.5372 69.9175 22.7868 69.9175C21.0368 69.9175 19.9959 69.1644 19.3754 68.4777C18.5113 67.5254 18.157 66.5947 18.157 64.1578C18.157 61.7432 18.5113 60.8126 19.3754 59.8606ZM24.6037 61.4995C24.271 61.0342 23.5624 60.6799 22.7868 60.6799C22.0116 60.6799 21.3026 61.0342 20.9703 61.4995C20.5495 62.0975 20.4164 62.5404 20.4164 64.1578C20.4164 65.7968 20.5495 66.2396 20.9703 66.8388C21.3026 67.3041 22.0116 67.6581 22.7868 67.6581C23.5624 67.6581 24.271 67.3041 24.6037 66.8388C25.0241 66.2396 25.1576 65.7968 25.1576 64.1794C25.1576 62.5404 25.0241 62.0975 24.6037 61.4995Z" fill="#01A6E6"/>
<path d="M38.8036 68.544C37.8732 69.3413 36.6328 69.9176 35.0817 69.9176C32.601 69.9176 30.8951 68.4554 30.1416 67.0818C29.6322 66.1519 29.4546 65.6865 29.4546 61.8977C29.4546 58.1096 29.6322 57.6449 30.1416 56.7143C30.8951 55.3407 32.601 53.8782 35.0817 53.8782C37.563 53.8782 39.2693 55.3407 40.022 56.7143C40.5322 57.6449 40.7098 58.1096 40.7098 61.8977C40.7098 65.3102 40.576 66.0181 40.1331 66.8388L42.2161 68.5002L40.7976 70.1392L38.8036 68.544ZM34.8383 65.3763L36.2556 63.7366L38.0946 65.1988C38.2721 64.6008 38.3162 63.6487 38.3162 61.8977C38.3162 58.6635 38.1391 58.2206 37.5185 57.4226C37.0312 56.8022 36.2119 56.2714 35.0817 56.2714C33.9525 56.2714 33.1325 56.8022 32.6451 57.4226C32.0246 58.2206 31.8478 58.6635 31.8478 61.8977C31.8478 65.1326 32.0246 65.5751 32.6451 66.3735C33.1325 66.9929 33.9525 67.5255 35.0817 67.5255C35.8135 67.5255 36.4115 67.3041 36.8544 66.9715L34.8383 65.3763" fill="#86C922"/>
<path d="M43.3 58.5531H45.5602V65.2435C45.5602 66.7711 46.5125 67.6581 47.7983 67.6581C49.0605 67.6581 50.0129 66.7711 50.0129 65.2435V58.5531H52.2723V69.7848H50.0129V68.588H49.9688C49.2597 69.4746 48.2413 69.9175 47.0666 69.9175C45.2941 69.9175 43.3 68.5663 43.3 66.018V58.5531" fill="#86C922"/>
<path d="M61.0893 68.7879H61.0444C60.5799 69.5624 59.8043 69.9175 58.2768 69.9175C55.7725 69.9175 54.311 68.4336 54.311 66.4837C54.311 64.6896 55.5508 63.1609 57.9665 63.1609H61.0893V61.9869C61.0893 60.9228 60.4034 60.5464 58.785 60.5464C57.6115 60.5464 57.0582 60.7677 56.6584 61.4106L54.8867 60.0594C55.75 58.8626 56.991 58.4197 58.6748 58.4197C61.4444 58.4197 63.3488 59.3503 63.3488 62.12V69.7848H61.0893V68.7879ZM61.0893 65.0223H58.387C57.0582 65.0223 56.4378 65.553 56.4378 66.3734C56.4378 67.1266 57.0358 67.7907 58.5646 67.7907C60.4464 67.7907 61.0893 67.5919 61.0893 65.8409V65.0223Z" fill="#86C922"/>
<path d="M66.2734 58.553H68.5328V59.749H68.5777C69.2859 58.8625 70.3053 58.4196 71.5013 58.4196C73.2517 58.4196 75.2456 59.7704 75.2456 62.3187V69.7847H72.9862V63.0943C72.9862 61.5656 72.0331 60.6798 70.7706 60.6798C69.4859 60.6798 68.5328 61.5656 68.5328 63.0943V69.7847H66.2734V58.553" fill="#86C922"/>
<path d="M78.3031 55.1405H80.5624V58.553H82.2014V60.2806H80.5624V66.8163C80.5624 67.4367 80.8054 67.658 81.3593 67.658H82.2014V69.7847H81.0278C79.4542 69.7847 78.3031 68.7878 78.3031 67.0162V60.2806H77.1724V58.553H78.3031V55.1405" fill="#86C922"/>
<path d="M0.0864258 72.9841H1.08363L3.07655 77.5183L5.03134 72.9841H6.02818V79.9414H4.97267V75.6027H4.95285L3.49704 78.9446H2.61757L1.16212 75.6027H1.14157V79.9414H0.0864258V72.9841" fill="#B0B1B5"/>
<path d="M7.56215 74.176C7.89405 73.5697 8.64718 72.925 9.74161 72.925C10.8356 72.925 11.5883 73.5697 11.921 74.176C12.1453 74.586 12.2237 74.7915 12.2237 76.4623C12.2237 78.1334 12.1453 78.3398 11.921 78.7498C11.5883 79.3553 10.8356 80 9.74161 80C8.64718 80 7.89405 79.3553 7.56215 78.7498C7.33714 78.3398 7.25977 78.1334 7.25977 76.4623C7.25977 74.7915 7.33714 74.586 7.56215 74.176ZM8.66624 78.4361C8.88116 78.7106 9.24297 78.9445 9.74161 78.9445C10.2398 78.9445 10.6016 78.7106 10.8165 78.4361C11.0901 78.0848 11.1679 77.8897 11.1679 76.4623C11.1679 75.036 11.0901 74.8401 10.8165 74.4888C10.6016 74.2145 10.2398 73.9805 9.74161 73.9805C9.24297 73.9805 8.88116 74.2145 8.66624 74.4888C8.39302 74.8401 8.31453 75.036 8.31453 76.4623C8.31453 77.8897 8.39302 78.0848 8.66624 78.4361Z" fill="#B0B1B5"/>
<path d="M13.4548 72.9841H15.8881C16.8061 72.9841 17.5592 73.3949 18.008 74.1566C18.35 74.7431 18.3796 75.0066 18.3796 76.4623C18.3796 78.0262 18.3015 78.2999 17.9886 78.7887C17.5782 79.4334 16.855 79.9414 15.8193 79.9414H13.4548V72.9841ZM14.5097 78.9446H15.7707C16.3665 78.9446 16.7869 78.7397 17.0602 78.3398C17.2945 77.9873 17.3245 77.7915 17.3245 76.502C17.3245 75.251 17.2945 74.9486 17.0112 74.567C16.6887 74.1275 16.3373 73.9806 15.7707 73.9806H14.5097V78.9446Z" fill="#B0B1B5"/>
<path d="M19.6108 72.9841H24.0572V73.9806H20.6667V75.9645H23.5586V76.9023H20.6667V78.9446H24.0572V79.9414H19.6108V72.9841" fill="#B0B1B5"/>
<path d="M25.0442 72.9841H26.0998V78.9446H29.4901V79.9414H25.0442V72.9841" fill="#B0B1B5"/>
<path d="M32.7349 72.9841H33.7309V75.5148C34.1025 75.1631 34.5028 74.9284 35.0111 74.9284C35.6173 74.9284 36.0569 75.2023 36.3399 75.5731C36.6138 75.9256 36.692 76.2478 36.692 77.4595C36.692 78.681 36.6138 79.0035 36.3399 79.3553C36.0569 79.7268 35.6173 80 35.0111 80C34.5028 80 34.0442 79.7661 33.7309 79.4237V79.9413H32.7349V72.9841ZM33.7309 77.4595C33.7309 78.182 33.7803 79.0035 34.708 79.0035C35.6465 79.0035 35.6951 78.2314 35.6951 77.4595C35.6951 76.6974 35.6465 75.9256 34.708 75.9256C33.7803 75.9256 33.7309 76.7464 33.7309 77.4595Z" fill="#B0B1B5"/>
<path d="M40.4053 79.5014H40.3848C40.1811 79.8441 39.839 80 39.1637 80C38.0603 80 37.4155 79.3455 37.4155 78.4851C37.4155 77.6935 37.9627 77.0196 39.0272 77.0196H40.4053V76.5019C40.4053 76.0328 40.1025 75.8665 39.3898 75.8665C38.8721 75.8665 38.6266 75.9644 38.4509 76.2478L37.6694 75.6513C38.0506 75.1238 38.5982 74.9284 39.3393 74.9284C40.5623 74.9284 41.4014 75.3391 41.4014 76.5606V79.9413H40.4053V79.5014ZM40.4053 77.8408H39.2141C38.6266 77.8408 38.3526 78.0751 38.3526 78.4361C38.3526 78.7688 38.6172 79.0618 39.2919 79.0618C40.1231 79.0618 40.4053 78.974 40.4053 78.2018V77.8408Z" fill="#B0B1B5"/>
<path d="M42.8383 78.4269C43.2682 78.8469 43.7373 79.0618 44.4026 79.0618C44.9688 79.0618 45.3781 78.8469 45.3781 78.4269C45.3781 78.0751 45.1146 77.9682 44.7744 77.9383L43.8942 77.8598C43.0719 77.7914 42.4683 77.303 42.4683 76.453C42.4683 75.446 43.2682 74.9284 44.3147 74.9284C45.1838 74.9284 45.7706 75.1926 46.2583 75.6027L45.6434 76.3259C45.2528 76.0523 44.853 75.8665 44.3147 75.8665C43.6793 75.8665 43.4644 76.1207 43.4644 76.4623C43.4644 76.6776 43.6214 76.8926 44.1185 76.9318L44.9408 76.9908C45.9667 77.0589 46.3761 77.6845 46.3761 78.4761C46.3761 79.4435 45.4771 80 44.324 80C43.5223 80 42.7805 79.707 42.145 79.1108L42.8383 78.4269" fill="#B0B1B5"/>
<path d="M48.1367 77.8408C48.1367 78.6518 48.6337 79.0618 49.3178 79.0618C49.699 79.0618 50.1083 78.8861 50.4017 78.5834L51.125 79.1986C50.6372 79.7661 50.0017 80 49.3364 80C48.3198 80 47.1387 79.5119 47.1387 77.4793C47.1387 75.554 48.2227 74.9284 49.1813 74.9284C50.2746 74.9284 51.224 75.7395 51.224 77.0196V77.8408H48.1367ZM50.226 77.0196C50.1962 76.2672 49.7682 75.8665 49.1813 75.8665C48.5945 75.8665 48.1535 76.2672 48.1367 77.0196H50.226Z" fill="#B0B1B5"/>
<path d="M54.9074 75.5634C55.1802 75.2607 55.6399 74.9284 56.4118 74.9284C57.1836 74.9284 57.6433 75.2607 57.9161 75.5634C58.2974 75.9839 58.4544 76.3942 58.4544 77.4595C58.4544 78.5345 58.2974 78.9445 57.9161 79.3646C57.6433 79.6677 57.1836 80 56.4118 80C55.6399 80 55.1802 79.6677 54.9074 79.3646C54.5261 78.9445 54.3691 78.5345 54.3691 77.4595C54.3691 76.3942 54.5261 75.9839 54.9074 75.5634ZM57.2134 76.2866C57.0658 76.0815 56.7538 75.9256 56.4118 75.9256C56.0697 75.9256 55.7577 76.0815 55.6101 76.2866C55.425 76.5505 55.3671 76.7464 55.3671 77.4595C55.3671 78.182 55.425 78.3783 55.6101 78.6418C55.7577 78.8469 56.0697 79.0035 56.4118 79.0035C56.7538 79.0035 57.0658 78.8469 57.2134 78.6418C57.3985 78.3783 57.4583 78.182 57.4583 77.4693C57.4583 76.7464 57.3985 76.5505 57.2134 76.2866" fill="#B0B1B5"/>
<path d="M59.656 75.7496H59.157V74.9875H59.656V74.3323C59.656 73.4042 60.2334 72.9841 61.0052 72.9841H61.65V73.9223H61.0819C60.7605 73.9223 60.6539 74.0292 60.6539 74.3323V74.9875H61.65V75.7496H60.6539V79.9414H59.656V75.7496" fill="#B0B1B5"/>
<path d="M64.6494 72.9841H65.7053V78.9446H69.0954V79.9414H64.6494V72.9841" fill="#B0B1B5"/>
<path d="M70.0823 79.9414H71.1382V72.9841H70.0823V79.9414Z" fill="#B0B1B5"/>
<path d="M72.6033 72.9841H77.0511V73.9806H73.6611V76.0329H76.5522V76.9711H73.6611V79.9414H72.6033V72.9841" fill="#B0B1B5"/>
<path d="M77.8511 72.9841H82.297V73.9806H78.9069V75.9645H81.7999V76.9023H78.9069V78.9446H82.297V79.9414H77.8511V72.9841" fill="#B0B1B5"/>
</g>
<defs>
<clipPath id="clip0_246101_1000">
<rect width="82.2882" height="80" fill="white"/>
</clipPath>
</defs>
</svg>
