<svg width="217" height="50" viewBox="0 0 217 50" fill="none" xmlns="http://www.w3.org/2000/svg">
<g clip-path="url(#clip0)">
<path d="M90.3669 5.32456H99.7255C104.437 5.32456 106.879 8.00283 106.879 11.7999C106.879 13.8005 106.133 15.7339 103.319 16.9883V17.0553C105.964 17.6656 107.252 20.1758 107.252 22.6173C107.252 26.7873 104.167 29.4656 100.538 29.4656H90.3669V5.32456ZM94.0286 8.57937V15.4965H99.3176C101.963 15.4965 103.217 13.9377 103.217 12.0385C103.217 10.1737 101.963 8.57937 99.3176 8.57937H94.0286ZM94.0286 18.7514V26.0077H99.6568C102.369 26.0077 103.59 24.2789 103.59 22.3799C103.59 20.4807 102.369 18.7514 99.6568 18.7514H94.0286Z" fill="#01A6E6"/>
<path d="M110.845 5.32456H114.304V8.78366H110.845V5.32456ZM110.845 12.2759H114.304V29.4656H110.845V12.2759Z" fill="#01A6E6"/>
<path d="M119.898 14.277C120.847 13.2238 122.44 12.0717 125.119 12.0717C127.798 12.0717 129.391 13.2238 130.34 14.277C131.663 15.7339 132.205 17.1582 132.205 20.8537C132.205 24.5832 131.663 26.0077 130.34 27.4652C129.391 28.5161 127.798 29.6687 125.119 29.6687C122.44 29.6687 120.847 28.5161 119.898 27.4652C118.575 26.0077 118.033 24.5832 118.033 20.8537C118.033 17.1582 118.575 15.7339 119.898 14.277ZM127.899 16.7852C127.39 16.0731 126.306 15.5308 125.119 15.5308C123.932 15.5308 122.847 16.0731 122.339 16.7852C121.695 17.7005 121.491 18.3784 121.491 20.8537C121.491 23.3621 121.695 24.0398 122.339 24.9568C122.847 25.669 123.932 26.2108 125.119 26.2108C126.306 26.2108 127.39 25.669 127.899 24.9568C128.543 24.0398 128.747 23.3621 128.747 20.8868C128.747 18.3784 128.543 17.7005 127.899 16.7852Z" fill="#01A6E6"/>
<path d="M149.632 27.5665C148.208 28.7867 146.31 29.6687 143.936 29.6687C140.139 29.6687 137.529 27.4309 136.375 25.3286C135.596 23.9055 135.324 23.1932 135.324 17.3946C135.324 11.5969 135.596 10.8858 136.375 9.46153C137.529 7.35921 140.139 5.12086 143.936 5.12086C147.734 5.12086 150.345 7.35921 151.497 9.46153C152.278 10.8858 152.55 11.5969 152.55 17.3946C152.55 22.6173 152.345 23.7006 151.667 24.9568L154.855 27.4995L152.684 30.0079L149.632 27.5665ZM143.564 22.7185L145.733 20.2089L148.547 22.4468C148.819 21.5315 148.886 20.0744 148.886 17.3946C148.886 12.4447 148.615 11.7668 147.666 10.5455C146.92 9.59596 145.666 8.78365 143.936 8.78365C142.208 8.78365 140.953 9.59596 140.207 10.5455C139.257 11.7668 138.987 12.4447 138.987 17.3946C138.987 22.3455 139.257 23.0228 140.207 24.2447C140.953 25.1926 142.208 26.0077 143.936 26.0077C145.056 26.0077 145.971 25.669 146.649 25.1599L143.564 22.7185Z" fill="#86C922"/>
<path d="M156.514 12.2759H159.973V22.5153C159.973 24.8533 161.431 26.2108 163.398 26.2108C165.33 26.2108 166.788 24.8533 166.788 22.5153V12.2759H170.246V29.4656H166.788V27.6339H166.72C165.635 28.9908 164.076 29.6687 162.278 29.6687C159.566 29.6687 156.514 27.6008 156.514 23.7006V12.2759Z" fill="#86C922"/>
<path d="M183.74 27.94H183.671C182.96 29.1253 181.774 29.6687 179.436 29.6687C175.603 29.6687 173.366 27.3977 173.366 24.4134C173.366 21.6676 175.264 19.328 178.961 19.328H183.74V17.5312C183.74 15.9026 182.69 15.3265 180.214 15.3265C178.417 15.3265 177.571 15.6652 176.959 16.6492L174.247 14.5813C175.569 12.7496 177.468 12.0717 180.045 12.0717C184.284 12.0717 187.198 13.496 187.198 17.7349V29.4656H183.74V27.94ZM183.74 22.1768H179.604C177.571 22.1768 176.621 22.9891 176.621 24.2447C176.621 25.3973 177.536 26.4138 179.876 26.4138C182.756 26.4138 183.74 26.1095 183.74 23.4296V22.1768Z" fill="#86C922"/>
<path d="M191.674 12.2759H195.132V14.1064H195.201C196.285 12.7496 197.845 12.0717 199.675 12.0717C202.354 12.0717 205.406 14.139 205.406 18.0392V29.4656H201.948V19.2261C201.948 16.8866 200.489 15.5308 198.557 15.5308C196.591 15.5308 195.132 16.8866 195.132 19.2261V29.4656H191.674V12.2759Z" fill="#86C922"/>
<path d="M210.085 7.05316H213.543V12.2759H216.052V14.9199H213.543V24.9225C213.543 25.8721 213.915 26.2108 214.763 26.2108H216.052V29.4656H214.255C211.847 29.4656 210.085 27.94 210.085 25.2286V14.9199H208.355V12.2759H210.085V7.05316Z" fill="#86C922"/>
<path d="M90.3767 34.3618H91.9029L94.953 41.3012L97.9448 34.3618H99.4704V45.0097H97.855V38.3694H97.8246L95.5966 43.484H94.2506L92.023 38.3694H91.9916V45.0097H90.3767V34.3618Z" fill="#B0B1B5"/>
<path d="M101.818 36.186C102.326 35.2581 103.479 34.2714 105.154 34.2714C106.828 34.2714 107.98 35.2581 108.489 36.186C108.832 36.8135 108.952 37.128 108.952 39.685C108.952 42.2426 108.832 42.5585 108.489 43.186C107.98 44.1127 106.828 45.0994 105.154 45.0994C103.479 45.0994 102.326 44.1127 101.818 43.186C101.474 42.5585 101.355 42.2426 101.355 39.685C101.355 37.128 101.474 36.8135 101.818 36.186ZM103.508 42.706C103.837 43.126 104.39 43.484 105.154 43.484C105.916 43.484 106.47 43.126 106.799 42.706C107.217 42.1682 107.336 41.8696 107.336 39.685C107.336 37.5022 107.217 37.2024 106.799 36.6647C106.47 36.2448 105.916 35.8868 105.154 35.8868C104.39 35.8868 103.837 36.2448 103.508 36.6647C103.09 37.2024 102.97 37.5022 102.97 39.685C102.97 41.8696 103.09 42.1682 103.508 42.706Z" fill="#B0B1B5"/>
<path d="M110.837 34.3618H114.561C115.966 34.3618 117.118 34.9904 117.805 36.1563C118.329 37.0538 118.374 37.4571 118.374 39.6851C118.374 42.0785 118.254 42.4973 117.776 43.2455C117.147 44.2322 116.04 45.0097 114.455 45.0097H110.837V34.3618ZM112.451 43.484H114.381C115.293 43.484 115.936 43.1705 116.355 42.5585C116.713 42.019 116.759 41.7193 116.759 39.7457C116.759 37.8311 116.713 37.3684 116.28 36.7843C115.786 36.1116 115.248 35.8868 114.381 35.8868H112.451V43.484Z" fill="#B0B1B5"/>
<path d="M120.258 34.3618H127.063V35.8868H121.874V38.9231H126.3V40.3584H121.874V43.484H127.063V45.0097H120.258V34.3618Z" fill="#B0B1B5"/>
<path d="M128.574 34.3618H130.19V43.484H135.378V45.0097H128.574V34.3618Z" fill="#B0B1B5"/>
<path d="M140.344 34.3617H141.869V38.235C142.437 37.6966 143.05 37.3374 143.828 37.3374C144.756 37.3374 145.429 37.7567 145.862 38.3241C146.281 38.8636 146.4 39.3567 146.4 41.2112C146.4 43.0807 146.281 43.5744 145.862 44.1127C145.429 44.6813 144.756 45.0994 143.828 45.0994C143.05 45.0994 142.348 44.7414 141.869 44.2174V45.0096H140.344V34.3617ZM141.869 41.2112C141.869 42.317 141.944 43.5744 143.364 43.5744C144.8 43.5744 144.875 42.3926 144.875 41.2112C144.875 40.0448 144.8 38.8636 143.364 38.8636C141.944 38.8636 141.869 40.1198 141.869 41.2112Z" fill="#B0B1B5"/>
<path d="M152.084 44.3363H152.052C151.74 44.8609 151.217 45.0994 150.183 45.0994C148.495 45.0994 147.508 44.0978 147.508 42.7809C147.508 41.5694 148.345 40.5381 149.974 40.5381H152.084V39.7457C152.084 39.0278 151.62 38.7733 150.529 38.7733C149.737 38.7733 149.361 38.9231 149.092 39.3567L147.896 38.4438C148.48 37.6366 149.318 37.3374 150.452 37.3374C152.324 37.3374 153.608 37.9661 153.608 39.8356V45.0096H152.084V44.3363ZM152.084 41.7948H150.26C149.361 41.7948 148.942 42.1534 148.942 42.706C148.942 43.2151 149.347 43.6636 150.38 43.6636C151.652 43.6636 152.084 43.5291 152.084 42.3473V41.7948Z" fill="#B0B1B5"/>
<path d="M155.807 42.6918C156.465 43.3346 157.183 43.6636 158.201 43.6636C159.068 43.6636 159.694 43.3346 159.694 42.6918C159.694 42.1534 159.291 41.9899 158.771 41.944L157.423 41.824C156.165 41.7192 155.241 40.9717 155.241 39.6708C155.241 38.1297 156.465 37.3374 158.067 37.3374C159.397 37.3374 160.295 37.7419 161.042 38.3694L160.101 39.4764C159.503 39.0575 158.891 38.7733 158.067 38.7733C157.095 38.7733 156.766 39.1622 156.766 39.685C156.766 40.0145 157.006 40.3436 157.767 40.4036L159.025 40.494C160.595 40.5981 161.222 41.5557 161.222 42.7672C161.222 44.2477 159.846 45.0994 158.081 45.0994C156.854 45.0994 155.719 44.651 154.746 43.7385L155.807 42.6918Z" fill="#B0B1B5"/>
<path d="M163.916 41.7948C163.916 43.036 164.677 43.6636 165.724 43.6636C166.307 43.6636 166.934 43.3947 167.383 42.9313L168.49 43.873C167.743 44.7414 166.771 45.0994 165.752 45.0994C164.196 45.0994 162.389 44.3524 162.389 41.2416C162.389 38.295 164.048 37.3374 165.515 37.3374C167.188 37.3374 168.641 38.5788 168.641 40.5381V41.7948H163.916ZM167.114 40.5381C167.068 39.3864 166.413 38.7733 165.515 38.7733C164.617 38.7733 163.942 39.3864 163.916 40.5381H167.114Z" fill="#B0B1B5"/>
<path d="M174.279 38.3094C174.696 37.846 175.4 37.3374 176.581 37.3374C177.762 37.3374 178.466 37.846 178.883 38.3094C179.467 38.9528 179.707 39.5809 179.707 41.2112C179.707 42.8565 179.467 43.484 178.883 44.1269C178.466 44.5908 177.762 45.0994 176.581 45.0994C175.4 45.0994 174.696 44.5908 174.279 44.1269C173.695 43.484 173.455 42.8565 173.455 41.2112C173.455 39.5809 173.695 38.9528 174.279 38.3094ZM177.808 39.4162C177.582 39.1022 177.104 38.8636 176.581 38.8636C176.058 38.8636 175.58 39.1022 175.354 39.4162C175.071 39.82 174.982 40.1198 174.982 41.2112C174.982 42.317 175.071 42.6174 175.354 43.0207C175.58 43.3346 176.058 43.5744 176.581 43.5744C177.104 43.5744 177.582 43.3346 177.808 43.0207C178.091 42.6174 178.183 42.317 178.183 41.2262C178.183 40.1198 178.091 39.82 177.808 39.4162Z" fill="#B0B1B5"/>
<path d="M181.546 38.5942H180.783V37.4278H181.546V36.4251C181.546 35.0046 182.43 34.3618 183.611 34.3618H184.598V35.7976H183.729C183.237 35.7976 183.074 35.9612 183.074 36.4251V37.4278H184.598V38.5942H183.074V45.0097H181.546V38.5942Z" fill="#B0B1B5"/>
<path d="M189.189 34.3618H190.805V43.484H195.993V45.0097H189.189V34.3618Z" fill="#B0B1B5"/>
<path d="M197.503 45.0097H199.119V34.3618H197.503V45.0097Z" fill="#B0B1B5"/>
<path d="M201.362 34.3618H208.169V35.8868H202.98V39.0278H207.405V40.4637H202.98V45.0097H201.362V34.3618Z" fill="#B0B1B5"/>
<path d="M209.393 34.3618H216.198V35.8868H211.009V38.9231H215.437V40.3584H211.009V43.484H216.198V45.0097H209.393V34.3618Z" fill="#B0B1B5"/>
<path d="M0.46875 0.468789C0.46875 27.5664 22.4346 49.5311 49.531 49.5311V0.468789H0.46875Z" stroke="#3E3E42"/>
<path d="M49.531 12.7345C49.531 16.1228 52.2763 18.8677 55.6646 18.8677V12.7345H49.531Z" fill="#00ADEF"/>
<path d="M49.531 12.7345C49.531 16.1228 52.2763 18.8677 55.6646 18.8677V12.7345H49.531Z" fill="#01A6E6" stroke="#3E3E42"/>
<path d="M61.7963 0.468817C55.0224 0.468817 49.531 5.96135 49.531 12.7345H61.7963V0.468817Z" stroke="#3E3E42"/>
<path d="M61.7964 0.468828V18.8677H80.1952C80.1952 8.70603 71.958 0.468828 61.7964 0.468828Z" stroke="#3E3E42"/>
<path d="M80.1952 18.8677H49.531V49.5311C66.4655 49.5311 80.1952 35.8025 80.1952 18.8677V18.8677Z" stroke="#3E3E42"/>
<path d="M61.7963 12.7345H55.6646V18.8677C59.0509 18.8677 61.7963 16.1228 61.7963 12.7345Z" fill="#80CC28"/>
<path d="M61.7963 12.7345H55.6646V18.8677C59.0509 18.8677 61.7963 16.1228 61.7963 12.7345Z" fill="#86C922" stroke="#3E3E42"/>
<path d="M55.6646 18.8677H61.7963V12.7345H55.6646V18.8677Z" stroke="#4F4C4C"/>
<path d="M55.6646 12.7345H61.7963V0.468817H49.531V12.7345H55.6646Z" stroke="#3E3E42"/>
<path d="M55.6646 18.8677H49.531V49.5311H80.1952V18.8677H61.7963H55.6646Z" stroke="#3E3E42"/>
<path d="M49.531 12.7345V0.468789H0.46875V49.5311H49.531V18.8677V12.7345Z" stroke="#3E3E42"/>
<path d="M61.7964 0.468828V18.8677H80.1952V0.468828H61.7964Z" stroke="#3E3E42"/>
<path d="M49.531 12.7345V18.8677H55.6646V12.7345H49.531Z" stroke="#3E3E42"/>
</g>
<defs>
<clipPath id="clip0">
<rect width="216.184" height="50" fill="white"/>
</clipPath>
</defs>
</svg>
