<svg width="222" height="52" viewBox="0 0 222 52" fill="none" xmlns="http://www.w3.org/2000/svg">
<path d="M1 1.00019C1 28.6507 23.414 51.0635 51.0633 51.0635V1.00019H1Z" stroke="#3E3E42" stroke-width="1.26582"/>
<path d="M51.0632 13.5161C51.0632 16.9735 53.8646 19.7744 57.3219 19.7744V13.5161H51.0632" fill="#00ADEF"/>
<path d="M51.0632 13.5161C51.0632 16.9735 53.8646 19.7744 57.3219 19.7744V13.5161H51.0632Z" fill="#01A6E6" stroke="#3E3E42" stroke-width="1.26582"/>
<path d="M63.5788 1.00017C56.6667 1.00017 51.0632 6.60477 51.0632 13.5161H63.5788V1.00017Z" stroke="#3E3E42" stroke-width="1.26582"/>
<path d="M63.5789 1.00017V19.7744H82.3531C82.3531 9.40543 73.9478 1.00017 63.5789 1.00017Z" stroke="#3E3E42" stroke-width="1.26582"/>
<path d="M82.353 19.7744H51.0632V51.0635C68.3432 51.0635 82.353 37.0548 82.353 19.7744V19.7744Z" stroke="#3E3E42" stroke-width="1.26582"/>
<path d="M63.5789 13.5161H57.322V19.7744C60.7775 19.7744 63.5789 16.9735 63.5789 13.5161" fill="#80CC28"/>
<path d="M63.5789 13.5161H57.322V19.7744C60.7775 19.7744 63.5789 16.9735 63.5789 13.5161V13.5161Z" fill="#86C922" stroke="#3E3E42" stroke-width="1.26582"/>
<path d="M57.322 19.7744H63.5789V13.5161H57.322V19.7744Z" stroke="#4F4C4C" stroke-width="1.26582"/>
<path d="M57.3219 13.5161H63.5788V1.00017H51.0632V13.5161H57.3219Z" stroke="#3E3E42" stroke-width="1.26582"/>
<path d="M57.3219 19.7744H51.0632V51.0635H82.353V19.7744H63.5788H57.3219Z" stroke="#3E3E42" stroke-width="1.26582"/>
<path d="M51.0633 13.5161V1.00019H1V51.0635H51.0633V19.7744V13.5161Z" stroke="#3E3E42" stroke-width="1.26582"/>
<path d="M63.5789 1.00017V19.7744H82.3531V1.00017H63.5789Z" stroke="#3E3E42" stroke-width="1.26582"/>
<path d="M51.0632 13.5161V19.7744H57.3219V13.5161H51.0632Z" stroke="#3E3E42" stroke-width="1.26582"/>
<path d="M92.6016 6.21563H102.199C107.031 6.21563 109.535 8.9623 109.535 12.8563C109.535 14.908 108.77 16.8908 105.884 18.1773V18.2459C108.596 18.8718 109.918 21.4461 109.918 23.9499C109.918 28.2265 106.754 30.9731 103.033 30.9731H92.6016V6.21563ZM96.3567 9.55356V16.6474H101.781C104.493 16.6474 105.78 15.0487 105.78 13.101C105.78 11.1886 104.493 9.55356 101.781 9.55356H96.3567ZM96.3567 19.9853V27.4269H102.129C104.911 27.4269 106.162 25.654 106.162 23.7065C106.162 21.7588 104.911 19.9853 102.129 19.9853H96.3567" fill="#01A6E6"/>
<path d="M113.603 6.21563H117.15V9.76306H113.603V6.21563ZM113.603 13.3444H117.15V30.9731H113.603V13.3444Z" fill="#01A6E6"/>
<path d="M122.887 15.3968C123.86 14.3167 125.494 13.1353 128.241 13.1353C130.988 13.1353 132.622 14.3167 133.596 15.3968C134.952 16.891 135.508 18.3517 135.508 22.1415C135.508 25.9663 134.952 27.4271 133.596 28.9219C132.622 29.9996 130.988 31.1816 128.241 31.1816C125.494 31.1816 123.86 29.9996 122.887 28.9219C121.53 27.4271 120.974 25.9663 120.974 22.1415C120.974 18.3517 121.53 16.891 122.887 15.3968ZM131.093 17.9692C130.57 17.2388 129.458 16.6827 128.241 16.6827C127.024 16.6827 125.911 17.2388 125.39 17.9692C124.729 18.9078 124.52 19.603 124.52 22.1415C124.52 24.7139 124.729 25.409 125.39 26.3494C125.911 27.0797 127.024 27.6354 128.241 27.6354C129.458 27.6354 130.57 27.0797 131.093 26.3494C131.752 25.409 131.962 24.7139 131.962 22.1754C131.962 19.603 131.752 18.9078 131.093 17.9692Z" fill="#01A6E6"/>
<path d="M153.38 29.0251C151.92 30.2764 149.973 31.181 147.539 31.181C143.645 31.181 140.968 28.8861 139.785 26.7301C138.985 25.2706 138.707 24.5401 138.707 18.5934C138.707 12.6477 138.985 11.9185 139.785 10.4578C140.968 8.30179 143.645 6.00628 147.539 6.00628C151.433 6.00628 154.111 8.30179 155.293 10.4578C156.093 11.9185 156.372 12.6477 156.372 18.5934C156.372 23.9495 156.162 25.0605 155.467 26.3488L158.736 28.9564L156.51 31.5288L153.38 29.0251ZM147.157 24.0532L149.381 21.4796L152.267 23.7747C152.546 22.836 152.615 21.3417 152.615 18.5934C152.615 13.5171 152.337 12.8219 151.363 11.5694C150.598 10.5957 149.312 9.76261 147.539 9.76261C145.766 9.76261 144.479 10.5957 143.714 11.5694C142.74 12.8219 142.463 13.5171 142.463 18.5934C142.463 23.6707 142.74 24.3653 143.714 25.6184C144.479 26.5906 145.766 27.4265 147.539 27.4265C148.687 27.4265 149.626 27.0791 150.321 26.5571L147.157 24.0532" fill="#86C922"/>
<path d="M160.438 13.3437H163.985V23.8446C163.985 26.2423 165.48 27.6344 167.498 27.6344C169.479 27.6344 170.974 26.2423 170.974 23.8446V13.3437H174.52V30.9724H170.974V29.0939H170.905C169.792 30.4855 168.193 31.1807 166.349 31.1807C163.568 31.1807 160.438 29.06 160.438 25.0602V13.3437" fill="#86C922"/>
<path d="M188.359 29.4078H188.288C187.559 30.6233 186.342 31.1807 183.944 31.1807C180.014 31.1807 177.72 28.8517 177.72 25.7911C177.72 22.9752 179.666 20.5759 183.457 20.5759H188.359V18.7332C188.359 17.063 187.282 16.4722 184.742 16.4722C182.9 16.4722 182.032 16.8196 181.404 17.8287L178.623 15.708C179.979 13.8295 181.926 13.1343 184.569 13.1343C188.916 13.1343 191.905 14.595 191.905 18.9421V30.9724H188.359V29.4078ZM188.359 23.4974H184.117C182.032 23.4974 181.058 24.3305 181.058 25.6181C181.058 26.8002 181.997 27.8426 184.396 27.8426C187.35 27.8426 188.359 27.5305 188.359 24.7822V23.4974Z" fill="#86C922"/>
<path d="M196.496 13.3439H200.042V15.2212H200.112C201.224 13.8298 202.824 13.1346 204.701 13.1346C207.448 13.1346 210.578 15.2547 210.578 19.2545V30.9727H207.032V20.4717C207.032 18.0724 205.536 16.682 203.554 16.682C201.538 16.682 200.042 18.0724 200.042 20.4717V30.9727H196.496V13.3439" fill="#86C922"/>
<path d="M215.377 7.98789H218.923V13.3439H221.495V16.0555H218.923V26.3136C218.923 27.2874 219.304 27.6347 220.174 27.6347H221.495V30.9727H219.653C217.184 30.9727 215.377 29.4081 215.377 26.6275V16.0555H213.602V13.3439H215.377V7.98789" fill="#86C922"/>
<path d="M92.6116 35.9942H94.1767L97.3047 43.1109L100.373 35.9942H101.937V46.9141H100.281V40.1043H100.25L97.9647 45.3495H96.5843L94.2999 40.1043H94.2677V46.9141H92.6116V35.9942" fill="#B0B1B5"/>
<path d="M104.345 37.8648C104.866 36.9132 106.048 35.9013 107.766 35.9013C109.483 35.9013 110.664 36.9132 111.187 37.8648C111.539 38.5083 111.662 38.8309 111.662 41.4532C111.662 44.0761 111.539 44.4001 111.187 45.0436C110.664 45.9939 109.483 47.0059 107.766 47.0059C106.048 47.0059 104.866 45.9939 104.345 45.0436C103.992 44.4001 103.871 44.0761 103.871 41.4532C103.871 38.8309 103.992 38.5083 104.345 37.8648ZM106.078 44.5513C106.415 44.982 106.983 45.3492 107.766 45.3492C108.548 45.3492 109.116 44.982 109.453 44.5513C109.882 43.9998 110.005 43.6936 110.005 41.4532C110.005 39.2146 109.882 38.9072 109.453 38.3557C109.116 37.9251 108.548 37.558 107.766 37.558C106.983 37.558 106.415 37.9251 106.078 38.3557C105.649 38.9072 105.526 39.2146 105.526 41.4532C105.526 43.6936 105.649 43.9998 106.078 44.5513Z" fill="#B0B1B5"/>
<path d="M113.594 35.9942H117.413C118.854 35.9942 120.036 36.639 120.741 37.8346C121.277 38.755 121.324 39.1686 121.324 41.4535C121.324 43.908 121.201 44.3376 120.71 45.1048C120.066 46.1168 118.931 46.9141 117.305 46.9141H113.594V35.9942ZM115.25 45.3495H117.229C118.164 45.3495 118.824 45.0279 119.253 44.4003C119.621 43.8471 119.668 43.5396 119.668 41.5157C119.668 39.5522 119.621 39.0776 119.176 38.4787C118.67 37.7888 118.118 37.5582 117.229 37.5582H115.25V45.3495Z" fill="#B0B1B5"/>
<path d="M123.256 35.9942H130.235V37.5582H124.913V40.6721H129.452V42.144H124.913V45.3495H130.235V46.9141H123.256V35.9942" fill="#B0B1B5"/>
<path d="M131.784 35.9942H133.441V45.3495H138.762V46.9141H131.784V35.9942" fill="#B0B1B5"/>
<path d="M143.855 35.994H145.418V39.9661C146.002 39.414 146.63 39.0457 147.428 39.0457C148.379 39.0457 149.069 39.4756 149.513 40.0576C149.943 40.6108 150.066 41.1165 150.066 43.0184C150.066 44.9356 149.943 45.4419 149.513 45.9939C149.069 46.5771 148.379 47.0059 147.428 47.0059C146.63 47.0059 145.91 46.6387 145.418 46.1013V46.9138H143.855V35.994ZM145.418 43.0184C145.418 44.1524 145.496 45.4419 146.952 45.4419C148.425 45.4419 148.501 44.2299 148.501 43.0184C148.501 41.8222 148.425 40.6108 146.952 40.6108C145.496 40.6108 145.418 41.8991 145.418 43.0184Z" fill="#B0B1B5"/>
<path d="M155.894 46.2233H155.862C155.542 46.7612 155.005 47.0059 153.945 47.0059C152.214 47.0059 151.202 45.9786 151.202 44.6282C151.202 43.3857 152.061 42.328 153.731 42.328H155.894V41.5154C155.894 40.7792 155.419 40.5182 154.3 40.5182C153.488 40.5182 153.103 40.6718 152.827 41.1165L151.6 40.1803C152.198 39.3525 153.058 39.0457 154.221 39.0457C156.141 39.0457 157.458 39.6904 157.458 41.6076V46.9138H155.894V46.2233ZM155.894 43.6169H154.025C153.103 43.6169 152.672 43.9847 152.672 44.5513C152.672 45.0735 153.088 45.5333 154.147 45.5333C155.451 45.5333 155.894 45.3955 155.894 44.1835V43.6169Z" fill="#B0B1B5"/>
<path d="M159.713 44.5367C160.388 45.196 161.124 45.5333 162.168 45.5333C163.057 45.5333 163.699 45.196 163.699 44.5367C163.699 43.9847 163.286 43.8169 162.752 43.7699L161.37 43.6468C160.08 43.5394 159.132 42.7727 159.132 41.4386C159.132 39.8581 160.388 39.0457 162.03 39.0457C163.394 39.0457 164.315 39.4605 165.081 40.104L164.116 41.2392C163.503 40.8097 162.875 40.5182 162.03 40.5182C161.033 40.5182 160.696 40.9171 160.696 41.4532C160.696 41.7911 160.942 42.1286 161.722 42.1901L163.013 42.2828C164.623 42.3896 165.266 43.3716 165.266 44.6141C165.266 46.1324 163.855 47.0059 162.045 47.0059C160.786 47.0059 159.622 46.546 158.625 45.6102L159.713 44.5367" fill="#B0B1B5"/>
<path d="M168.029 43.6169C168.029 44.8898 168.809 45.5333 169.883 45.5333C170.481 45.5333 171.124 45.2576 171.584 44.7824L172.719 45.7481C171.954 46.6387 170.956 47.0059 169.912 47.0059C168.316 47.0059 166.463 46.2398 166.463 43.0495C166.463 40.0277 168.164 39.0457 169.669 39.0457C171.385 39.0457 172.875 40.3187 172.875 42.328V43.6169H168.029ZM171.308 42.328C171.262 41.147 170.59 40.5182 169.669 40.5182C168.748 40.5182 168.055 41.147 168.029 42.328H171.308Z" fill="#B0B1B5"/>
<path d="M178.656 40.0424C179.084 39.5672 179.806 39.0457 181.017 39.0457C182.229 39.0457 182.95 39.5672 183.378 40.0424C183.977 40.7023 184.223 41.3464 184.223 43.0184C184.223 44.7057 183.977 45.3492 183.378 46.0085C182.95 46.4843 182.229 47.0059 181.017 47.0059C179.806 47.0059 179.084 46.4843 178.656 46.0085C178.058 45.3492 177.811 44.7057 177.811 43.0184C177.811 41.3464 178.058 40.7023 178.656 40.0424ZM182.276 41.1775C182.044 40.8555 181.554 40.6108 181.017 40.6108C180.48 40.6108 179.991 40.8555 179.759 41.1775C179.469 41.5917 179.378 41.8991 179.378 43.0184C179.378 44.1524 179.469 44.4604 179.759 44.874C179.991 45.196 180.48 45.4419 181.017 45.4419C181.554 45.4419 182.044 45.196 182.276 44.874C182.566 44.4604 182.66 44.1524 182.66 43.0337C182.66 41.8991 182.566 41.5917 182.276 41.1775" fill="#B0B1B5"/>
<path d="M186.109 40.3348H185.326V39.1386H186.109V38.1103C186.109 36.6535 187.015 35.9942 188.227 35.9942H189.239V37.4668H188.347C187.843 37.4668 187.675 37.6345 187.675 38.1103V39.1386H189.239V40.3348H187.675V46.9141H186.109V40.3348" fill="#B0B1B5"/>
<path d="M193.947 35.9942H195.604V45.3495H200.925V46.9141H193.947V35.9942" fill="#B0B1B5"/>
<path d="M202.474 46.9141H204.131V35.9943H202.474V46.9141Z" fill="#B0B1B5"/>
<path d="M206.431 35.9942H213.412V37.5582H208.091V40.7795H212.629V42.252H208.091V46.9141H206.431V35.9942" fill="#B0B1B5"/>
<path d="M214.667 35.9942H221.646V37.5582H216.325V40.6721H220.865V42.144H216.325V45.3495H221.646V46.9141H214.667V35.9942" fill="#B0B1B5"/>
</svg>
